<?xml version="1.0" encoding="utf-8"?>
<!-- Generator: Adobe Illustrator 19.2.0, SVG Export Plug-In . SVG Version: 6.00 Build 0)  -->
<svg version="1.1" id="Layer_1" xmlns="http://www.w3.org/2000/svg" xmlns:xlink="http://www.w3.org/1999/xlink" x="0px" y="0px"
	 viewBox="0 0 174.5 48" style="enable-background:new 0 0 174.5 48;" xml:space="preserve">
<style type="text/css">
	.st0{fill:#2C2C2C;}
	.st1{font-family:'Gotham-Medium';}
	.st2{font-size:8.7905px;}
	.st3{fill:#E6B8B7;}
</style>
<g>
	<g>
		<g>
			<path class="st0" d="M95.4,12.5c-1.1-1.1-2.3-1.9-3.7-2.5c-1.4-0.6-2.9-0.9-4.6-0.9c-1.6,0-3.1,0.3-4.6,0.9
				c-1.4,0.6-2.7,1.5-3.7,2.5c-1.1,1.1-1.9,2.3-2.5,3.7c-0.6,1.4-0.9,2.9-0.9,4.5v12.9h4.8V20.7c0-0.9,0.2-1.8,0.5-2.7
				c0.4-0.8,0.8-1.6,1.5-2.2c0.6-0.6,1.3-1.1,2.2-1.4c0.8-0.4,1.7-0.5,2.6-0.5c0.9,0,1.8,0.2,2.6,0.5c0.8,0.4,1.5,0.8,2.2,1.4
				c0.6,0.6,1.1,1.3,1.5,2.2c0.4,0.8,0.5,1.7,0.5,2.7v12.9h4.8V20.7c0-1.6-0.3-3.1-0.9-4.5C97.3,14.8,96.5,13.5,95.4,12.5z"/>
			<polygon class="st0" points="99.7,33.5 104.5,33.5 104.5,9.1 99.7,10.5 			"/>
			<path class="st0" d="M112.3,16.3c0.6-0.7,1.3-1.2,2.2-1.5c0.8-0.4,1.7-0.6,2.6-0.6c1,0,1.8,0.2,2.6,0.5c0.8,0.3,1.5,0.8,2.1,1.4
				l3.5-3.5l-0.1-0.1c-1-1-2.2-1.9-3.6-2.5c-1.4-0.6-2.9-0.9-4.5-0.9c-1.6,0-3.1,0.3-4.5,1c-1.4,0.6-2.6,1.5-3.7,2.6
				c-1.1,1.1-1.9,2.4-2.5,3.9c-0.6,1.5-0.9,3.1-0.9,4.8c0,1.7,0.3,3.3,0.9,4.8c0.6,1.5,1.5,2.8,2.5,3.9c1.1,1.1,2.3,2,3.7,2.6
				c1.4,0.6,2.9,1,4.5,1c1.6,0,3.1-0.3,4.5-0.9c1.4-0.6,2.6-1.4,3.6-2.5l0.1-0.1l-3.5-3.5c-0.6,0.6-1.3,1.1-2.1,1.4
				c-0.8,0.3-1.6,0.5-2.6,0.5c-0.9,0-1.8-0.2-2.6-0.6c-0.8-0.4-1.5-0.9-2.2-1.5c-0.6-0.7-1.1-1.4-1.5-2.3c-0.4-0.9-0.5-1.8-0.5-2.8
				c0-1,0.2-1.9,0.5-2.8C111.2,17.7,111.7,16.9,112.3,16.3z"/>
			<path class="st0" d="M145.9,12.7c-1-1.1-2.2-2-3.6-2.6c-1.4-0.7-2.8-1-4.4-1c-1.3,0-2.5,0.2-3.6,0.6c-1.1,0.4-2.1,1-3,1.7V0.8
				l-4.7,1.4V29v1.3v3.2h4.7v-4.3v-8c0-1,0.2-1.9,0.5-2.8c0.3-0.9,0.8-1.6,1.4-2.3c0.6-0.7,1.3-1.2,2.1-1.5c0.8-0.4,1.7-0.6,2.6-0.6
				c0.9,0,1.7,0.2,2.5,0.6c0.8,0.4,1.5,0.9,2.1,1.5c0.6,0.7,1.1,1.4,1.4,2.3c0.3,0.9,0.5,1.8,0.5,2.8v12.3h4.7V21.3
				c0-1.7-0.3-3.2-0.9-4.7C147.8,15.1,147,13.8,145.9,12.7z"/>
			<path class="st0" d="M74.6,21.1c0-0.9-0.1-1.7-0.3-2.5c0-0.1,0-0.2,0-0.3l0,0c-0.1-0.6-0.3-1.2-0.6-1.8c-0.6-1.5-1.5-2.8-2.5-3.9
				c-1.1-1.1-2.3-2-3.8-2.6c-1.4-0.6-3-1-4.6-1v0c0,0,0,0,0,0c0,0,0,0,0,0c-1.6,0-3.2,0.3-4.6,1c-0.7,0.3-1.3,0.7-1.9,1.1
				c0,0-0.1,0-0.1,0.1c-0.1,0.1-0.2,0.1-0.3,0.2c-0.1,0-0.1,0.1-0.2,0.1c-0.1,0-0.1,0.1-0.2,0.2c-0.1,0.1-0.2,0.1-0.3,0.2
				c0,0-0.1,0.1-0.1,0.1c-0.1,0.1-0.2,0.2-0.3,0.3c0,0,0,0,0,0c-0.1,0.1-0.2,0.2-0.4,0.4c-0.3,0.3-0.5,0.6-0.8,0.9c0,0,0,0,0,0
				c-0.1,0.1-0.2,0.3-0.3,0.4c0,0.1-0.1,0.1-0.1,0.2c-0.1,0.1-0.1,0.2-0.2,0.3c-0.1,0.1-0.2,0.2-0.2,0.4c0,0,0,0.1-0.1,0.1
				c-0.3,0.5-0.6,1.1-0.8,1.6C51.3,18,51,19.6,51,21.3c0,1.7,0.3,3.2,0.9,4.7c0.1,0.3,0.3,0.6,0.5,0.9c0.6,1.1,1.2,2,2.1,2.9
				c1.1,1.1,2.3,2,3.7,2.6c1.4,0.6,3,0.9,4.6,0.9c1.6,0,3.1-0.3,4.6-0.9c0.8-0.4,1.6-0.8,2.3-1.4v2.5h4.9v-7.1v-5.2c0,0,0,0,0,0
				c0,0,0,0,0,0C74.6,21.2,74.6,21.1,74.6,21.1z M62.8,28.4c-3.9,0-7.1-3.2-7.1-7.1c0-3.9,3.2-7.1,7.1-7.1c3.9,0,7.1,3.2,7.1,7.1
				C69.9,25.2,66.7,28.4,62.8,28.4z"/>
			<path class="st0" d="M173.6,21.3c0,0,0-0.1,0-0.1c0-0.9-0.1-1.7-0.3-2.5c0-0.1,0-0.2,0-0.3l0,0c-0.1-0.6-0.3-1.2-0.6-1.8
				c-0.6-1.5-1.5-2.8-2.5-3.9c-1.1-1.1-2.3-2-3.8-2.6c-1.4-0.6-3-1-4.6-1l0,0c0,0,0,0,0,0h0c-1.6,0-3.2,0.3-4.6,1
				c-0.7,0.3-1.3,0.7-1.9,1.1c0,0-0.1,0-0.1,0.1c-0.1,0.1-0.2,0.1-0.3,0.2c-0.1,0-0.1,0.1-0.2,0.1c-0.1,0.1-0.1,0.1-0.2,0.2
				c-0.1,0.1-0.2,0.1-0.3,0.2c0,0-0.1,0.1-0.1,0.1c-0.1,0.1-0.2,0.2-0.3,0.3c0,0,0,0,0,0c-0.1,0.1-0.2,0.2-0.4,0.4
				c-0.3,0.3-0.5,0.6-0.8,0.9c0,0,0,0,0,0c-0.1,0.1-0.2,0.3-0.3,0.4c0,0.1-0.1,0.1-0.1,0.2c-0.1,0.1-0.1,0.2-0.2,0.3
				c-0.1,0.1-0.2,0.2-0.2,0.4c0,0,0,0.1-0.1,0.1c-0.3,0.5-0.6,1.1-0.8,1.6c-0.6,1.5-0.9,3.1-0.9,4.8c0,1.7,0.3,3.3,0.9,4.7
				c0.1,0.3,0.3,0.6,0.5,0.9c0.6,1.1,1.3,2.1,2.1,2.9c1.1,1.1,2.3,2,3.8,2.6c1.4,0.6,3,1,4.6,1c1.6,0,3.1-0.3,4.6-1
				c0.8-0.4,1.6-0.8,2.3-1.4v2.4h4.9v-7V21.3C173.6,21.4,173.6,21.4,173.6,21.3C173.6,21.3,173.6,21.3,173.6,21.3z M161.7,28.5
				c-4,0-7.2-3.2-7.2-7.1c0-3.9,3.2-7.1,7.2-7.1c4,0,7.2,3.2,7.2,7.1C168.9,25.3,165.7,28.5,161.7,28.5z"/>
		</g>
	</g>
	<text transform="matrix(1 0 0 1 49.6328 46.3623)" class="st0 st1 st2">eventos e terapias holísticas</text>
</g>
<g>
	<path class="st3" d="M45.4,30.5L45.4,30.5c0-0.1,0-0.2,0-0.2c0-4.9-2.3-8.3-4.7-10.4c3-2,4.6-5.6,4.2-9.3c-0.4-2.9-1.9-5.6-4.3-7.4
		c-1.7-1.3-3.8-2.1-5.9-2.2c-1.1-0.1-2.1,0-3.2,0.2c-1.1,0.2-2.1,0.6-3.1,1.1c-2.3,1.1-4.1,2.9-5.4,5c-0.3-0.5-0.7-1-1.2-1.4
		c-1.9-1.9-4.5-3.1-7.3-3.4c-2.3-0.2-4.6,0.3-6.6,1.3C4.5,5.5,2.1,8.4,1,12.1c-1.1,3.8-0.6,7.9,1.3,11.4c0.7,1.2,1.5,2.3,2.5,3.4
		c2.7,2.8,6.4,4.5,10.3,4.8c1.8,0.1,3.6,0,5.3-0.4c0,0,0,0,0,0c-0.1,0.6-0.2,1.1-0.2,1.7c-0.1,4.5,2.9,8.9,7.3,10.7
		c1.2,0.5,2.4,0.8,3.6,0.9c2.2,0.2,4.5-0.2,6.6-1.2c3.3-1.6,5.8-4.5,6.9-8c0.3-0.9,0.5-2,0.6-2.8c0-0.4,0.1-0.8,0.1-1.2
		C45.4,31,45.4,30.7,45.4,30.5z M43.4,31.2c0,0.3,0,0.7-0.1,1.1c-0.1,0.6-0.2,1.6-0.5,2.3l0,0c-0.9,3-3.1,5.5-5.8,6.8
		c-2.7,1.3-5.8,1.4-8.5,0.3c-3.7-1.5-6.2-5.1-6.1-8.8c0-0.9,0.2-1.8,0.6-2.7c0-0.1,0.1-0.2,0.1-0.3l1.1-2.4l-2.5,1.1
		c-0.9,0.4-1.4,0.5-1.7,0.6c-1.6,0.4-3.1,0.5-4.7,0.4c-3.4-0.3-6.6-1.8-9-4.2c-0.9-0.9-1.6-1.9-2.2-3c-1.7-3-2.1-6.6-1.2-9.9
		c0.9-3.2,3-5.7,5.8-7.1c1.7-0.9,3.6-1.3,5.5-1.1c2.3,0.2,4.4,1.2,6,2.8C21,7.9,21.5,8.7,22,9.6l1.1,2.5l0.9-2.3
		c1-2.6,2.9-4.7,5.3-5.8c0.8-0.4,1.7-0.7,2.6-0.9c0.9-0.2,1.7-0.2,2.6-0.1c1.8,0.1,3.4,0.8,4.9,1.8c2,1.5,3.3,3.6,3.5,6
		c0.4,3.3-1.2,6.5-4.1,7.9c-0.1,0-0.2,0.1-0.2,0.1L37,19.5l1.3,1c2.3,1.8,5.1,5,5,9.8c0,0.1,0,0.2,0,0.2l0,0
		C43.4,30.7,43.4,31,43.4,31.2z"/>
	<path class="st3" d="M41,30.3c0-6.5-6.1-9.4-6.8-9.7c-1.8-0.8-3.2-1.7-3.9-2.6c-1.1-1.4-1.6-3.2-1.4-4.9c0.2-1.1,0.7-2.2,1.4-3
		l0.5-0.4c0.3-0.2,0.6-0.4,0.9-0.6c0.9-0.5,1.9-0.6,2.9-0.3c1.7,0.4,2.8,2,2.5,3.6c-0.1,0.6-0.5,1.2-1,1.4c-0.2,0.1-0.4,0.2-0.6,0.1
		l-0.1,0c-0.3,0-0.5-0.1-0.6-0.3c-0.1-0.2-0.2-0.4-0.1-0.7c0.1-0.4,0-0.6-0.2-0.8c-0.2-0.2-0.4-0.2-0.7-0.2c-0.3,0.1-0.7,0.2-1,0.5
		c-0.7,0.7-0.9,2-0.3,3c0.8,1.3,2,1.9,3.6,1.8c0.5-0.1,1-0.2,1.5-0.4c1.9-1,3.1-3.3,2.8-5.6c-0.2-1.8-1.1-3.4-2.6-4.5
		c-1-0.8-2.3-1.2-3.6-1.4c-0.6-0.1-1.3,0-1.9,0.1c-0.7,0.1-1.4,0.4-2,0.7c-2.6,1.3-4.4,3.9-4.7,7c-0.2,2.1-0.8,3.9-1.9,5.6
		c-0.8,1.3-2,2.5-3.3,3.2c-0.7,0.4-1.5,0.6-2.3,0.8c-0.7,0.1-1.5,0.2-2.2,0.1c-1.8-0.1-3.4-0.9-4.6-2.1c-1.1-1.1-1.7-2.5-1.9-4
		c-0.3-2.6,1.4-5,3.7-5.4c0.9-0.2,1.9,0.2,2.5,0.8c0.3,0.3,0.4,0.6,0.5,0.9c0.1,0.5,0.1,0.9-0.1,1.2c-0.2,0.3-0.5,0.5-1,0.6
		c-0.5,0.1-0.8,0.3-0.9,0.6c-0.1,0.3-0.1,0.6,0.1,1c0.2,0.4,0.6,0.8,1,1.1c0.3,0.2,0.6,0.3,1,0.3c1.1,0.1,2.2-0.4,2.9-1.3
		c1.4-1.7,1.6-3.6,0.6-5.7c-0.3-0.7-0.7-1.3-1.2-1.8c-1.1-1.2-2.7-1.9-4.4-2c-1.5-0.1-2.9,0.2-4.2,0.9C7.6,8.7,6,10.7,5.2,13.3
		C4.4,16,4.8,19,6.2,21.5C6.7,22.4,7.3,23.2,8,24c2,2,4.6,3.3,7.5,3.5c1.3,0.1,2.6,0,3.9-0.3c1.4-0.3,3.5-1.7,5.1-2.8
		c1.7-1.3,3.7-1.9,5.4-1.8c2.5,0.1,3.8,1.3,4.4,1.7c2.6,2.1,2.6,4.6,2.6,6.7c0,1.4-0.5,2.6-1.4,3.6c-0.9,1-2.2,1.6-3.6,1.5
		c-0.8-0.1-1.5-0.3-2.1-0.8c-0.7-0.5-1.1-1.4-1-2.1c0-0.3,0.1-0.6,0.2-0.9c0.2-0.4,0.5-0.6,0.8-0.6c0.3-0.1,0.6,0.1,1,0.3
		c0.3,0.3,0.7,0.4,1,0.3c0.3-0.1,0.5-0.3,0.6-0.7c0.1-0.4,0.2-0.9,0.1-1.3c-0.3-1.1-1.4-2-2.7-2.1c-0.1,0-0.3,0-0.4,0
		c-1.9,0.1-3.3,1.1-4.1,3c-0.2,0.6-0.4,1.3-0.4,2c-0.1,2.8,1.8,5.5,4.6,6.6c0.7,0.3,1.5,0.5,2.3,0.5c0,0,0,0,0,0
		c1.4,0.1,2.9-0.2,4.2-0.8c2.2-1.1,3.9-3.1,4.7-5.5c0.2-0.4,0.3-1.1,0.4-1.9c0-0.3,0.1-0.6,0.1-0.9c0-0.2,0-0.4,0-0.5
		C41,30.5,41,30.4,41,30.3z"/>
</g>
</svg>
