<?xml version="1.0" encoding="utf-8"?>
<!-- Generator: Adobe Illustrator 24.0.2, SVG Export Plug-In . SVG Version: 6.00 Build 0)  -->
<svg version="1.1" id="Layer_1" xmlns="http://www.w3.org/2000/svg" xmlns:xlink="http://www.w3.org/1999/xlink" x="0px" y="0px"
	 viewBox="0 0 574 259.5" style="enable-background:new 0 0 574 259.5;" xml:space="preserve">
<style type="text/css">
	.st0{fill:#886AE9;}
	.st1{fill:none;stroke:#FFFFFF;stroke-width:1.7988;stroke-miterlimit:10;}
	.st2{opacity:0.4;fill:#361A84;stroke:#FFFFFF;stroke-width:2.6981;stroke-miterlimit:10;}
	.st3{opacity:0.6;fill:#6C3CD6;}
	.st4{fill:#FFFFFF;}
</style>
<g>
	<path class="st0" d="M23.3,17.7c0.9,0,1.7-0.2,2.3-0.5c0.7-0.3,1.3-0.8,2-1.5l1.7,1.7c-1.6,1.8-3.6,2.7-6,2.7
		c-2.3,0-4.3-0.8-5.8-2.3s-2.3-3.4-2.3-5.7S16,8,17.6,6.4c1.6-1.5,3.6-2.3,6-2.3c2.4,0,4.4,0.9,6,2.7l-1.7,1.8
		c-0.7-0.7-1.4-1.2-2.1-1.5c-0.7-0.3-1.4-0.4-2.3-0.4c-1.6,0-2.9,0.5-4,1.5c-1.1,1-1.6,2.3-1.6,3.9c0,1.6,0.5,2.9,1.6,4
		C20.6,17.1,21.8,17.7,23.3,17.7z"/>
	<path class="st0" d="M36.1,16.5c0.7,0.8,1.7,1.2,2.9,1.2s2.2-0.4,2.9-1.2c0.7-0.8,1.1-2,1.1-3.4V4.5h2.6v8.7c0,2.2-0.6,4-1.8,5.2
		c-1.2,1.2-2.8,1.8-4.7,1.8s-3.5-0.6-4.7-1.8c-1.2-1.2-1.8-2.9-1.8-5.2V4.5H35v8.6C35,14.5,35.4,15.7,36.1,16.5z"/>
	<path class="st0" d="M62.1,9.6c0,2.6-1.1,4.2-3.4,4.8l4.1,5.6h-3.3l-3.7-5.2h-3.4v5.2h-2.6V4.5h5.8c2.4,0,4.1,0.4,5.1,1.2
		S62.1,7.8,62.1,9.6z M58.6,11.8c0.5-0.5,0.8-1.2,0.8-2.2c0-1-0.3-1.7-0.8-2.1S57,6.9,55.6,6.9h-3.3v5.6h3.3
		C57,12.4,58,12.2,58.6,11.8z"/>
	<path class="st0" d="M70.5,6.6c-0.8,0-1.4,0.2-1.9,0.5c-0.5,0.3-0.7,0.8-0.7,1.4s0.2,1.1,0.7,1.4c0.5,0.3,1.5,0.7,3.1,1.1
		s2.8,0.9,3.6,1.6c0.8,0.7,1.2,1.7,1.2,3.1s-0.5,2.5-1.5,3.3s-2.4,1.3-4,1.3c-2.4,0-4.6-0.8-6.5-2.5l1.6-2c1.6,1.4,3.2,2,4.9,2
		c0.8,0,1.5-0.2,2-0.5s0.7-0.8,0.7-1.4s-0.2-1.1-0.7-1.4s-1.3-0.6-2.4-0.9c-1.1-0.3-2-0.5-2.6-0.8c-0.6-0.2-1.1-0.5-1.6-0.9
		c-0.9-0.7-1.4-1.8-1.4-3.2s0.5-2.5,1.6-3.3c1-0.8,2.3-1.2,3.9-1.2c1,0,2,0.2,3,0.5s1.8,0.8,2.5,1.4l-1.4,2c-0.5-0.4-1.1-0.8-1.9-1
		C72.1,6.7,71.3,6.6,70.5,6.6z"/>
	<path class="st0" d="M92.8,17.9c-1.6,1.5-3.5,2.3-5.8,2.3s-4.3-0.8-5.8-2.3c-1.6-1.5-2.4-3.4-2.4-5.7c0-2.3,0.8-4.2,2.4-5.7
		c1.6-1.5,3.5-2.3,5.8-2.3s4.3,0.8,5.8,2.3c1.6,1.5,2.4,3.4,2.4,5.7C95.2,14.5,94.4,16.4,92.8,17.9z M90.9,8.2
		c-1.1-1.1-2.4-1.6-3.9-1.6s-2.8,0.5-3.9,1.6c-1.1,1.1-1.6,2.4-1.6,4c0,1.6,0.5,2.9,1.6,4c1.1,1.1,2.4,1.6,3.9,1.6s2.8-0.5,3.9-1.6
		c1.1-1.1,1.6-2.4,1.6-4C92.5,10.6,92,9.3,90.9,8.2z"/>
	<path class="st0" d="M104.6,4.5h2.6v15.5h-2.6V4.5z"/>
	<path class="st0" d="M123.2,4.5h2.6v15.5H123l-8.8-11.3v11.3h-2.6V4.5h2.6l9,11.6V4.5z"/>
	<path class="st0" d="M136,6.9v13.1h-2.6V6.9h-4.7V4.5h12v2.4H136z"/>
	<path class="st0" d="M154.5,4.5V7h-8.3v4.1h7.4v2.3h-7.4v4.2h8.6v2.5h-11.2V4.5H154.5z"/>
	<path class="st0" d="M168.8,12.5h2.6v5.3c-1.5,1.6-3.6,2.4-6.3,2.4c-2.3,0-4.2-0.8-5.8-2.3s-2.3-3.4-2.3-5.7s0.8-4.2,2.4-5.8
		c1.6-1.5,3.5-2.3,5.7-2.3s4.1,0.7,5.6,2l-1.4,2c-0.6-0.5-1.2-0.9-1.8-1.1c-0.6-0.2-1.3-0.3-2.1-0.3c-1.6,0-2.9,0.5-4,1.5
		c-1.1,1-1.6,2.3-1.6,4c0,1.7,0.5,3,1.6,4c1,1,2.3,1.5,3.8,1.5c1.5,0,2.7-0.3,3.7-1V12.5z"/>
	<path class="st0" d="M187.3,9.6c0,2.6-1.1,4.2-3.4,4.8l4.1,5.6h-3.3l-3.7-5.2h-3.4v5.2h-2.6V4.5h5.8c2.4,0,4.1,0.4,5.1,1.2
		S187.3,7.8,187.3,9.6z M183.8,11.8c0.5-0.5,0.8-1.2,0.8-2.2c0-1-0.3-1.7-0.8-2.1s-1.5-0.6-2.9-0.6h-3.3v5.6h3.3
		C182.3,12.4,183.3,12.2,183.8,11.8z"/>
	<path class="st0" d="M193.3,16.5l-1.6,3.5h-2.8l6.8-15.5h2.8l6.8,15.5h-2.8l-1.6-3.5H193.3z M200,14.1l-2.8-6.4l-2.8,6.4H200z"/>
	<path class="st0" d="M207.6,20.1V4.5h2.6v13h7.1v2.5H207.6z"/>
	<path class="st0" d="M233.5,4.5l6.8,15.5h-2.9l-1.6-3.5h-7.4l-1.5,3.5h-2.8L231,4.5H233.5z M233.4,3.2h-2.3l-2.7-2.1l2.6-1.1
		L233.4,3.2z M234.8,14.1l-2.7-6l-2.6,6H234.8z"/>
	<path class="st0" d="M260.3,6.5c1.5,1.4,2.2,3.2,2.2,5.7c0,2.4-0.7,4.3-2.2,5.7c-1.5,1.4-3.7,2.1-6.7,2.1h-5.2V4.5h5.3
		C256.7,4.5,258.9,5.2,260.3,6.5z M259.9,12.3c0-3.6-2-5.3-6.1-5.3h-2.6v10.6h2.9c1.9,0,3.3-0.4,4.3-1.3
		C259.4,15.3,259.9,14,259.9,12.3z"/>
	<path class="st0" d="M266,4.5h2.6v15.5H266V4.5z"/>
	<path class="st0" d="M277.6,6.6c-0.8,0-1.4,0.2-1.9,0.5c-0.5,0.3-0.7,0.8-0.7,1.4s0.2,1.1,0.7,1.4c0.5,0.3,1.5,0.7,3.1,1.1
		s2.8,0.9,3.6,1.6c0.8,0.7,1.2,1.7,1.2,3.1s-0.5,2.5-1.5,3.3s-2.4,1.3-4,1.3c-2.4,0-4.6-0.8-6.5-2.5l1.6-2c1.6,1.4,3.2,2,4.9,2
		c0.8,0,1.5-0.2,2-0.5s0.7-0.8,0.7-1.4s-0.2-1.1-0.7-1.4s-1.3-0.6-2.4-0.9c-1.1-0.3-2-0.5-2.6-0.8c-0.6-0.2-1.1-0.5-1.6-0.9
		c-0.9-0.7-1.4-1.8-1.4-3.2s0.5-2.5,1.6-3.3c1-0.8,2.3-1.2,3.9-1.2c1,0,2,0.2,3,0.5s1.8,0.8,2.5,1.4l-1.4,2c-0.5-0.4-1.1-0.8-1.9-1
		C279.1,6.7,278.4,6.6,277.6,6.6z"/>
	<path class="st0" d="M292.8,6.9v13.1h-2.6V6.9h-4.7V4.5h12v2.4H292.8z"/>
	<path class="st0" d="M307.6,4.5l6.8,15.5h-2.9l-1.6-3.5h-7.4l-1.5,3.5h-2.8L305,4.5H307.6z M305.1,0.2h2.3l2.7,3h-2.2L306.2,2
		l-1.7,1.2h-2.2L305.1,0.2z M308.9,14.1l-2.7-6l-2.6,6H308.9z"/>
	<path class="st0" d="M328.2,4.5h2.6v15.5H328l-8.8-11.3v11.3h-2.6V4.5h2.6l9,11.6V4.5z"/>
	<path class="st0" d="M342.2,17.7c0.9,0,1.7-0.2,2.3-0.5s1.3-0.8,2-1.5l1.7,1.7c-1.6,1.8-3.6,2.7-6,2.7c-2.3,0-4.3-0.8-5.8-2.3
		s-2.3-3.4-2.3-5.7s0.8-4.2,2.4-5.8c1.6-1.5,3.6-2.3,6-2.3c2.4,0,4.4,0.9,6,2.7l-1.7,1.8c-0.7-0.7-1.4-1.2-2.1-1.5
		c-0.7-0.3-1.4-0.4-2.3-0.4c-1.6,0-2.9,0.5-4,1.5c-1.1,1-1.6,2.3-1.6,3.9c0,1.6,0.5,2.9,1.6,4S340.8,17.7,342.2,17.7z"/>
	<path class="st0" d="M351.5,4.5h2.6v15.5h-2.6V4.5z"/>
	<path class="st0" d="M360.7,16.5l-1.6,3.5h-2.8l6.8-15.5h2.8l6.8,15.5H370l-1.6-3.5H360.7z M367.4,14.1l-2.8-6.4l-2.8,6.4H367.4z"
		/>
</g>
<g>
	<path class="st1" d="M42.1,61.9V107h-9V61.9H16.8v-8.3h41.4v8.3H42.1z"/>
	<path class="st1" d="M105.6,53.6v8.5H77.1v14.1h25.6v8H77.1v14.3h29.4v8.5H68V53.6H105.6z"/>
	<path class="st1" d="M160.7,71c0,8.8-3.8,14.4-11.5,16.7l14,19.4h-11.5l-12.8-18h-11.9v18h-9V53.6h19.9c8.2,0,14,1.4,17.5,4.1
		C158.9,60.5,160.7,64.9,160.7,71z M148.7,78.5c1.8-1.6,2.8-4.1,2.8-7.6c0-3.5-0.9-5.9-2.8-7.2c-1.9-1.3-5.3-1.9-10.1-1.9h-11.5
		v19.1h11.2C143.4,80.9,146.9,80.1,148.7,78.5z"/>
	<path class="st1" d="M181.3,94.9l-5.4,12.2h-9.6l23.5-53.4h9.6L223,107h-9.6L208,94.9H181.3z M204.4,86.5l-9.7-22l-9.7,22H204.4z"
		/>
	<path class="st1" d="M266.5,58.3c3.7,3.1,5.6,7.9,5.6,14.4c0,6.5-1.9,11.2-5.7,14.2c-3.8,3-9.6,4.5-17.5,4.5h-9.5V107h-9V53.6h18.3
		C256.9,53.6,262.8,55.2,266.5,58.3z M260.1,80.3c1.8-1.9,2.7-4.7,2.7-8.4c0-3.7-1.1-6.3-3.4-7.8c-2.3-1.5-5.9-2.3-10.8-2.3h-9.2
		v21.4h10.5C254.9,83.2,258.3,82.2,260.1,80.3z"/>
	<path class="st1" d="M282.7,53.6h9V107h-9V53.6z"/>
	<path class="st1" d="M314.1,94.9l-5.4,12.2h-9.6l23.5-53.4h9.6l23.5,53.4h-9.6l-5.4-12.2H314.1z M337.2,86.5l-9.7-22l-9.7,22H337.2
		z"/>
	<path class="st1" d="M379.5,60.6c-2.6,0-4.8,0.5-6.5,1.6s-2.5,2.7-2.5,4.9c0,2.2,0.8,3.8,2.5,5s5.3,2.4,10.7,3.7
		c5.5,1.3,9.6,3.2,12.4,5.6c2.8,2.4,4.2,5.9,4.2,10.6c0,4.7-1.8,8.4-5.3,11.4s-8.1,4.4-13.8,4.4c-8.4,0-15.8-2.9-22.2-8.6l5.7-6.8
		c5.4,4.7,11,7,16.8,7c2.9,0,5.2-0.6,6.9-1.9c1.7-1.2,2.6-2.9,2.6-5c0-2.1-0.8-3.7-2.4-4.8c-1.6-1.1-4.4-2.2-8.3-3.1
		c-3.9-0.9-6.9-1.8-8.9-2.6c-2-0.8-3.8-1.8-5.4-3.1c-3.2-2.4-4.7-6.1-4.7-11c0-4.9,1.8-8.8,5.4-11.4c3.6-2.7,8-4,13.3-4
		c3.4,0,6.8,0.6,10.2,1.7c3.4,1.1,6.3,2.7,8.7,4.7l-4.8,6.8c-1.6-1.4-3.7-2.6-6.4-3.5C384.8,61.1,382.1,60.6,379.5,60.6z"/>
	<path class="st1" d="M59.4,128.6v8.5H30.9v14.1h25.6v8H30.9v14.3h29.4v8.5H21.9v-53.4H59.4z"/>
	<path class="st1" d="M111.9,128.6h9V182h-9.8l-30.3-39v39h-9v-53.4h9l31,39.9V128.6z"/>
	<path class="st1" d="M173.3,128.6v8.5h-28.5v14.1h25.6v8h-25.6v14.3h29.4v8.5h-38.5v-53.4H173.3z"/>
	<path class="st1" d="M228.4,146c0,8.8-3.8,14.4-11.5,16.7l14,19.4h-11.5l-12.8-18h-11.9v18h-9v-53.4h19.9c8.2,0,14,1.4,17.5,4.1
		C226.7,135.5,228.4,139.9,228.4,146z M216.4,153.5c1.8-1.6,2.8-4.1,2.8-7.6c0-3.5-0.9-5.9-2.8-7.2c-1.9-1.3-5.3-1.9-10.1-1.9h-11.5
		v19.1H206C211.1,155.9,214.6,155.1,216.4,153.5z"/>
	<path class="st1" d="M278.4,156h9v18.3c-5,5.6-12.3,8.3-21.6,8.3c-7.9,0-14.5-2.6-19.8-7.8c-5.3-5.2-8-11.8-8-19.7
		s2.7-14.6,8.1-19.9c5.4-5.3,12-8,19.7-8c7.7,0,14.1,2.2,19.2,6.7l-4.8,6.9c-2.1-1.8-4.2-3-6.3-3.7c-2.1-0.7-4.6-1-7.4-1
		c-5.4,0-9.9,1.7-13.6,5.2c-3.7,3.5-5.5,8.1-5.5,13.8c0,5.7,1.8,10.2,5.4,13.7c3.6,3.4,7.9,5.2,13,5.2c5.1,0,9.3-1.1,12.7-3.3V156z"
		/>
	<path class="st1" d="M336.9,128.6v8.5h-28.5v14.1h25.6v8h-25.6v14.3h29.4v8.5h-38.5v-53.4H336.9z M322.2,124.2h-7.8l8.1-11.1l9,3.7
		L322.2,124.2z"/>
	<path class="st1" d="M369.5,136.9V182h-9v-45.2h-16.2v-8.3h41.4v8.3H369.5z"/>
	<path class="st1" d="M395.5,128.6h9V182h-9V128.6z"/>
	<path class="st1" d="M443.7,173.9c3.1,0,5.8-0.5,8-1.6c2.2-1,4.6-2.7,7-5l5.8,6c-5.7,6.3-12.5,9.4-20.6,9.4
		c-8.1,0-14.8-2.6-20.1-7.8c-5.3-5.2-8-11.8-8-19.7s2.7-14.6,8.1-19.9c5.4-5.3,12.3-8,20.6-8c8.3,0,15.2,3.1,20.8,9.2l-5.7,6.3
		c-2.5-2.4-5-4.2-7.2-5.1c-2.3-1-4.9-1.5-8-1.5c-5.4,0-9.9,1.7-13.6,5.2c-3.7,3.5-5.5,8-5.5,13.4c0,5.4,1.8,10,5.5,13.6
		C434.4,172,438.7,173.9,443.7,173.9z"/>
	<path class="st1" d="M483.2,169.9l-5.4,12.2h-9.6l23.5-53.4h9.6l23.5,53.4h-9.6l-5.4-12.2H483.2z M506.3,161.5l-9.7-22l-9.7,22
		H506.3z"/>
	<path class="st1" d="M548.5,135.6c-2.6,0-4.8,0.5-6.5,1.6c-1.7,1.1-2.5,2.7-2.5,4.9c0,2.2,0.8,3.8,2.5,5c1.7,1.1,5.3,2.4,10.7,3.7
		c5.5,1.3,9.6,3.2,12.4,5.6c2.8,2.4,4.2,5.9,4.2,10.6c0,4.7-1.8,8.4-5.3,11.4s-8.1,4.4-13.8,4.4c-8.4,0-15.8-2.9-22.2-8.6l5.7-6.8
		c5.4,4.7,11,7,16.8,7c2.9,0,5.2-0.6,6.9-1.9c1.7-1.2,2.6-2.9,2.6-5s-0.8-3.7-2.4-4.8s-4.4-2.2-8.3-3.1c-3.9-0.9-6.9-1.8-8.9-2.6
		c-2-0.8-3.8-1.8-5.4-3.1c-3.2-2.4-4.7-6.1-4.7-11c0-4.9,1.8-8.8,5.4-11.4c3.6-2.7,8-4,13.3-4c3.4,0,6.8,0.6,10.2,1.7
		c3.4,1.1,6.3,2.7,8.7,4.7l-4.8,6.8c-1.6-1.4-3.7-2.6-6.4-3.5C553.8,136.1,551.1,135.6,548.5,135.6z"/>
</g>
<polyline class="st2" points="550,219 550,211.8 1.3,211.8 1.3,252.3 13.9,252.3 "/>
<rect x="13.9" y="219" class="st3" width="548.6" height="40.5"/>
<g>
	<path class="st4" d="M38.8,248.6h-2.6V233h4.1l4.7,9.8l4.7-9.8h4.1v15.5h-2.6v-12.1l-5.4,10.8h-1.5l-5.4-10.8V248.6z"/>
	<path class="st4" d="M68,245c0.7,0.8,1.7,1.2,2.9,1.2s2.2-0.4,2.9-1.2s1.1-2,1.1-3.4V233h2.6v8.7c0,2.2-0.6,4-1.8,5.2
		c-1.2,1.2-2.8,1.8-4.7,1.8s-3.5-0.6-4.7-1.8c-1.2-1.2-1.8-2.9-1.8-5.2V233h2.6v8.6C66.9,243.1,67.3,244.2,68,245z"/>
	<path class="st4" d="M88,248.6V233h2.6v13h7.1v2.5H88z"/>
	<path class="st4" d="M111.3,235.4v13.1h-2.6v-13.1H104V233h12v2.4H111.3z"/>
	<path class="st4" d="M125.3,233h2.6v15.5h-2.6V233z"/>
	<path class="st4" d="M150.5,235.1c1.5,1.4,2.2,3.2,2.2,5.7c0,2.4-0.7,4.3-2.2,5.7c-1.5,1.4-3.7,2.1-6.7,2.1h-5.2V233h5.3
		C146.8,233,149,233.7,150.5,235.1z M150.1,240.8c0-3.6-2-5.3-6.1-5.3h-2.6v10.6h2.9c1.9,0,3.3-0.4,4.3-1.3
		C149.6,243.9,150.1,242.5,150.1,240.8z"/>
	<path class="st4" d="M162.5,233h2.6v15.5h-2.6V233z"/>
	<path class="st4" d="M178.6,248.6h-2.6V233h4.1l4.7,9.8l4.7-9.8h4.1v15.5h-2.6v-12.1l-5.4,10.8H184l-5.4-10.8V248.6z"/>
	<path class="st4" d="M215.1,233v2.5h-8.3v4.1h7.4v2.3h-7.4v4.2h8.6v2.5h-11.2V233H215.1z"/>
	<path class="st4" d="M236.9,233h2.6v15.5h-2.8l-8.8-11.3v11.3h-2.6V233h2.6l9,11.6V233z"/>
	<path class="st4" d="M255,235.1c-0.8,0-1.4,0.2-1.9,0.5c-0.5,0.3-0.7,0.8-0.7,1.4c0,0.6,0.2,1.1,0.7,1.4c0.5,0.3,1.5,0.7,3.1,1.1
		c1.6,0.4,2.8,0.9,3.6,1.6c0.8,0.7,1.2,1.7,1.2,3.1s-0.5,2.5-1.5,3.3c-1,0.8-2.4,1.3-4,1.3c-2.4,0-4.6-0.8-6.5-2.5l1.6-2
		c1.6,1.4,3.2,2,4.9,2c0.8,0,1.5-0.2,2-0.5c0.5-0.4,0.7-0.8,0.7-1.4c0-0.6-0.2-1.1-0.7-1.4c-0.5-0.3-1.3-0.6-2.4-0.9s-2-0.5-2.6-0.8
		c-0.6-0.2-1.1-0.5-1.6-0.9c-0.9-0.7-1.4-1.8-1.4-3.2s0.5-2.5,1.6-3.3c1-0.8,2.3-1.2,3.9-1.2c1,0,2,0.2,3,0.5c1,0.3,1.8,0.8,2.5,1.4
		l-1.4,2c-0.5-0.4-1.1-0.8-1.9-1C256.5,235.2,255.7,235.1,255,235.1z"/>
	<path class="st4" d="M270.7,233h2.6v15.5h-2.6V233z"/>
	<path class="st4" d="M297.1,246.4c-1.6,1.5-3.5,2.3-5.8,2.3s-4.3-0.8-5.8-2.3c-1.6-1.5-2.4-3.4-2.4-5.7s0.8-4.2,2.4-5.7
		c1.6-1.5,3.5-2.3,5.8-2.3s4.3,0.8,5.8,2.3c1.6,1.5,2.4,3.4,2.4,5.7S298.7,244.9,297.1,246.4z M295.2,236.7
		c-1.1-1.1-2.4-1.6-3.9-1.6s-2.8,0.5-3.9,1.6c-1.1,1.1-1.6,2.4-1.6,4s0.5,2.9,1.6,4c1.1,1.1,2.4,1.6,3.9,1.6s2.8-0.5,3.9-1.6
		c1.1-1.1,1.6-2.4,1.6-4S296.2,237.8,295.2,236.7z"/>
	<path class="st4" d="M320.9,233h2.6v15.5h-2.8l-8.8-11.3v11.3h-2.6V233h2.6l9,11.6V233z"/>
	<path class="st4" d="M336.4,245l-1.6,3.5h-2.8l6.8-15.5h2.8l6.8,15.5h-2.8l-1.6-3.5H336.4z M343.2,242.6l-2.8-6.4l-2.8,6.4H343.2z"
		/>
	<path class="st4" d="M357.2,233h2.6v15.5h-2.6V233z"/>
	<path class="st4" d="M375.3,235.1c-0.8,0-1.4,0.2-1.9,0.5s-0.7,0.8-0.7,1.4c0,0.6,0.2,1.1,0.7,1.4c0.5,0.3,1.5,0.7,3.1,1.1
		c1.6,0.4,2.8,0.9,3.6,1.6c0.8,0.7,1.2,1.7,1.2,3.1s-0.5,2.5-1.5,3.3c-1,0.8-2.4,1.3-4,1.3c-2.4,0-4.6-0.8-6.5-2.5l1.6-2
		c1.6,1.4,3.2,2,4.9,2c0.8,0,1.5-0.2,2-0.5c0.5-0.4,0.7-0.8,0.7-1.4c0-0.6-0.2-1.1-0.7-1.4c-0.5-0.3-1.3-0.6-2.4-0.9
		c-1.1-0.3-2-0.5-2.6-0.8c-0.6-0.2-1.1-0.5-1.6-0.9c-0.9-0.7-1.4-1.8-1.4-3.2s0.5-2.5,1.6-3.3c1-0.8,2.3-1.2,3.9-1.2
		c1,0,2,0.2,3,0.5c1,0.3,1.8,0.8,2.5,1.4l-1.4,2c-0.5-0.4-1.1-0.8-1.9-1C376.8,235.2,376,235.1,375.3,235.1z"/>
</g>
</svg>
